inDegrees=yes
name=ik_data_2024_11_07_18_52
DataType=double
version=3
OpenSimVersion=4.5.1
endheader
time	pelvis_tilt	pelvis_list	pelvis_rotation	pelvis_tx	pelvis_ty	pelvis_tz	hip_flexion_r	hip_adduction_r	hip_rotation_r	knee_angle_r	knee_angle_r_beta	ankle_angle_r	subtalar_angle_r	mtp_angle_r	hip_flexion_l	hip_adduction_l	hip_rotation_l	knee_angle_l	knee_angle_l_beta	ankle_angle_l	subtalar_angle_l	mtp_angle_l	lumbar_extension	lumbar_bending	lumbar_rotation	arm_flex_r	arm_add_r	arm_rot_r	elbow_flex_r	pro_sup_r	wrist_flex_r	wrist_dev_r	arm_flex_l	arm_add_l	arm_rot_l	elbow_flex_l	pro_sup_l	wrist_flex_l	wrist_dev_l
5.014	0.9462357577780448	-3.619561575648461	-28.887011216393	0	0.9399999999999999	0	50.57856109635274	7.712971725146181	6.026217650506354	59.2047541770058	1.033317893222617	-5.184941569049375	0	0	-2.322879773787505	-2.787620075384229	-14.26984130284052	0.5086055566328682	0.008876841557182035	-5.184941569049375	0	0	0	0	0	0	-9.610895407942779	0	74.60295842677316	45.21744217844456	0	0	0	-9.610895407942779	0	74.60295842677316	45.21744217844456	0	0
5.07809	1.207957039297516	-3.893197257996531	-29.9633425010945	0	0.9399999999999999	0	53.28354320951045	8.717901592720244	6.258676105264313	62.62525920656629	1.093016968069473	-5.184290088572949	0	0	-2.745653987472153	-2.848251511125045	-15.36780774097593	0.5040236811966017	0.008796872744902932	-5.184290088572949	0	0	0	0	0	0	-9.613036299205458	0	74.60326588963754	45.21697729754541	0	0	0	-9.613036299205458	0	74.60326588963754	45.21697729754541	0	0
5.13049	1.624878085128401	-3.935233552848297	-30.14849584879314	0	0.9399999999999999	0	55.22023249983611	8.854002797036932	6.271968554581092	65.26577174245475	1.139102605760912	-5.183690975135816	0	0	-3.133323572349731	-2.663221544001835	-15.55805626664466	0.5051822208050617	0.008817093075585326	-5.183690975135816	0	0	0	0	0	0	-9.615012049387401	0	74.6035494908667	45.21654916213727	0	0	0	-9.615012049387401	0	74.6035494908667	45.21654916213727	0	0
5.14324	1.807199181850602	-4.333794879165492	-31.76043397331105	0	0.9399999999999999	0	57.28989817792023	10.24125345221974	6.531321570558539	68.19270044058764	1.190187148514442	-5.183077117872751	0	0	-3.573634731751081	-2.824331076285832	-17.20513473308443	0.5035764212222188	0.008789066585737566	-5.183077117872751	0	0	0	0	0	0	-9.61704563078184	0	74.60384113310286	45.21610978035724	0	0	0	-9.61704563078184	0	74.60384113310286	45.21610978035724	0	0
5.2555	1.909930924095784	-4.942119561840538	-34.22995584671106	0	0.9399999999999999	0	59.16298370323997	12.56196204408172	6.894464095657699	70.39408814180211	1.228608612013544	-5.182382231554263	0	0	-4.119989171524136	-3.111934796202552	-19.71484141721667	0.5111084766884439	0.00892052575306603	-5.182382231554263	0	0	0	0	0	0	-9.619348863506888	0	74.60417157353538	45.21561201828083	0	0	0	-9.619348863506888	0	74.60417157353538	45.21561201828083	0	0
5.25886	2.080599929794513	-5.223841391348392	-35.3899742828598	0	0.9399999999999999	0	60.75698744219628	13.67555782639703	6.826126051553351	72.51837169380609	1.265684354241973	-5.18176076500681	0	0	-4.484089559515908	-3.145034317145444	-20.89468338918702	0.5116803633490148	0.008930507058241227	-5.18176076500681	0	0	0	0	0	0	-9.62141640853398	0	74.60446804468152	45.21516615779071	0	0	0	-9.62141640853398	0	74.60446804468152	45.21516615779071	0	0
5.31325	2.300497425987403	-5.515456201322501	-36.62105226842596	0	0.9399999999999999	0	61.81832695848534	14.83757863788892	6.917364857420807	74.08686196555219	1.293059673769443	-5.181158203021798	0	0	-4.900257447482118	-3.14957296041747	-22.15278571468615	0.5103611893113453	0.008907483127877067	-5.181158203021798	0	0	0	0	0	0	-9.623428126938274	0	74.60475635022924	45.21473324996413	0	0	0	-9.623428126938274	0	74.60475635022924	45.21473324996413	0	0
5.32042	2.487743744353834	-5.813267417380171	-37.82633618585744	0	0.9399999999999999	0	62.49213466528469	15.72911415040398	7.487813608472119	74.85144401621793	1.306404147955211	-5.180753128384691	0	0	-5.30483682694192	-3.169765195683508	-23.37886399785321	0.5082498571959698	0.008870633430860668	-5.180753128384691	0	0	0	0	0	0	-9.624786482592819	0	74.60495083724591	45.21444179391427	0	0	0	-9.624786482592819	0	74.60495083724591	45.21444179391427	0	0
